<svg width="52" height="52" viewBox="0 0 52 52" fill="none" xmlns="http://www.w3.org/2000/svg">
<g clip-path="url(#clip0_389_675)">
<path d="M26.0083 12.6489C24.2561 12.6486 22.521 12.9936 20.9021 13.664C19.2832 14.3344 17.8123 15.3172 16.5733 16.5562C15.3343 17.7952 14.3515 19.2661 13.6811 20.885C13.0106 22.5039 12.6657 24.239 12.666 25.9913C12.6657 27.7435 13.0106 29.4786 13.6811 31.0975C14.3515 32.7164 15.3343 34.1873 16.5733 35.4263C17.8123 36.6654 19.2832 37.6481 20.9021 38.3185C22.521 38.989 24.2561 39.3339 26.0083 39.3336C27.7606 39.3339 29.4957 38.989 31.1146 38.3185C32.7335 37.6481 34.2044 36.6654 35.4434 35.4263C36.6824 34.1873 37.6652 32.7164 38.3356 31.0975C39.0061 29.4786 39.351 27.7435 39.3507 25.9913C39.351 24.239 39.0061 22.5039 38.3356 20.885C37.6652 19.2661 36.6824 17.7952 35.4434 16.5562C34.2044 15.3172 32.7335 14.3344 31.1146 13.664C29.4957 12.9936 27.7606 12.6486 26.0083 12.6489ZM26.0083 34.6514C24.2961 34.651 22.6225 34.1429 21.199 33.1914C19.7756 32.2399 18.6662 30.8877 18.0112 29.3057C17.3561 27.7237 17.1848 25.9831 17.519 24.3038C17.8531 22.6245 18.6777 21.082 19.8884 19.8713C21.0991 18.6606 22.6416 17.836 24.3209 17.5019C26.0002 17.1678 27.7408 17.339 29.3228 17.9941C30.9047 18.6491 32.257 19.7585 33.2085 21.1819C34.16 22.6054 34.6681 24.2791 34.6685 25.9913C34.6691 27.1287 34.4455 28.2551 34.0105 29.306C33.5755 30.357 32.9376 31.3119 32.1333 32.1162C31.329 32.9205 30.3741 33.5584 29.3231 33.9934C28.2722 34.4284 27.1458 34.652 26.0083 34.6514Z" fill="#A24F34"/>
<path d="M36.7202 0.165047C31.9362 -0.0581199 20.0867 -0.0472866 15.2984 0.165047C11.0907 0.362213 7.37918 1.37838 4.38702 4.37055C-0.613651 9.37121 0.0255158 16.1095 0.0255158 25.9917C0.0255158 36.1057 -0.537817 42.688 4.38702 47.6129C9.40718 52.6309 16.243 51.9744 26.0082 51.9744C36.0269 51.9744 39.4849 51.9809 43.0274 50.6094C47.8439 48.7395 51.4795 44.4344 51.8349 36.7015C52.0602 31.9154 52.0472 20.068 51.8349 15.2797C51.4059 6.15155 46.507 0.615713 36.7202 0.165047ZM44.2927 44.3044C41.0145 47.5825 36.4667 47.29 25.9454 47.29C15.112 47.29 10.7679 47.4504 7.59802 44.2719C3.94718 40.6384 4.60802 34.8035 4.60802 25.957C4.60802 13.9862 3.37952 5.36505 15.3937 4.74971C18.154 4.65221 18.9665 4.61971 25.915 4.61971L26.0125 4.68471C37.5587 4.68471 46.6175 3.47571 47.1614 15.4877C47.2849 18.2285 47.313 19.0519 47.313 25.9895C47.3109 36.6972 47.5145 41.0674 44.2927 44.3044Z" fill="#A24F34"/>
<path d="M39.8796 15.2403C41.6015 15.2403 42.9974 13.8444 42.9974 12.1225C42.9974 10.4005 41.6015 9.00464 39.8796 9.00464C38.1576 9.00464 36.7617 10.4005 36.7617 12.1225C36.7617 13.8444 38.1576 15.2403 39.8796 15.2403Z" fill="#A24F34"/>
</g>
<defs>
<clipPath id="clip0_389_675">
<rect width="52" height="52" fill="white"/>
</clipPath>
</defs>
</svg>
