<svg width="18" height="23" viewBox="0 0 18 23" fill="none" xmlns="http://www.w3.org/2000/svg">
<path d="M11.4496 1.45853C11.4496 0.776248 12.0027 0.223145 12.6849 0.223145H16.3911C17.0734 0.223145 17.6265 0.776247 17.6265 1.45853V21.2248C17.6265 21.9071 17.0734 22.4602 16.3911 22.4602H12.6849C12.0027 22.4602 11.4496 21.9071 11.4496 21.2248V1.45853Z" fill="white"/>
<path d="M0.331055 1.45853C0.331055 0.776248 0.884157 0.223145 1.56644 0.223145H5.27261C5.9549 0.223145 6.508 0.776247 6.508 1.45853V21.2248C6.508 21.9071 5.9549 22.4602 5.27261 22.4602H1.56644C0.884157 22.4602 0.331055 21.9071 0.331055 21.2248V1.45853Z" fill="white"/>
</svg>
