<svg width="109" height="18" viewBox="0 0 109 18" fill="none" xmlns="http://www.w3.org/2000/svg">
<path d="M8.4712 0.974686L6.18747 6.22841L1 7.0762L4.75787 11.2168L3.85958 16.9747L8.4712 14.2038L13.0838 16.9747L12.1921 11.2168L15.9434 7.0762L10.7847 6.22841L8.4712 0.974686Z" fill="#E99270" stroke="#E99270" stroke-width="1.5" stroke-linejoin="round"/>
<path d="M31.4146 0.974686L29.1308 6.22841L23.9434 7.0762L27.7012 11.2168L26.8029 16.9747L31.4146 14.2038L36.0272 16.9747L35.1355 11.2168L38.8868 7.0762L33.7281 6.22841L31.4146 0.974686Z" fill="#E99270" stroke="#E99270" stroke-width="1.5" stroke-linejoin="round"/>
<path d="M54.3579 0.974686L52.0742 6.22841L46.8867 7.0762L50.6446 11.2168L49.7463 16.9747L54.3579 14.2038L58.9705 16.9747L58.0788 11.2168L61.8302 7.0762L56.6714 6.22841L54.3579 0.974686Z" fill="#E99270" stroke="#E99270" stroke-width="1.5" stroke-linejoin="round"/>
<path d="M77.3013 0.974686L75.0175 6.22841L69.8301 7.0762L73.5879 11.2168L72.6897 16.9747L77.3013 14.2038L81.9139 16.9747L81.0222 11.2168L84.7735 7.0762L79.6148 6.22841L77.3013 0.974686Z" fill="#E99270" stroke="#E99270" stroke-width="1.5" stroke-linejoin="round"/>
<path d="M100.245 0.974686L97.9609 6.22841L92.7734 7.0762L96.5313 11.2168L95.633 16.9747L100.245 14.2038L104.857 16.9747L103.966 11.2168L107.717 7.0762L102.558 6.22841L100.245 0.974686Z" fill="#E99270" stroke="#E99270" stroke-width="1.5" stroke-linejoin="round"/>
</svg>
