<svg width="319" height="153" viewBox="0 0 319 153" fill="none" xmlns="http://www.w3.org/2000/svg">
<path fill-rule="evenodd" clip-rule="evenodd" d="M183.108 72.9946C185.5 72.0183 207.361 48.2243 211.591 43.4578C216.377 38.0788 220.301 32.8147 224.091 27.0337C226.197 23.8369 234.007 10.686 229.7 5.90042C226.963 2.85677 221.507 6.24499 219.306 7.58496C216.415 9.34606 213.889 12.1217 211.668 14.3997C204.451 21.8269 199.513 32.1064 195.033 41.3905C193.349 44.8935 192.181 48.1095 190.65 51.4785C189.941 53.0482 183.242 71.0038 183.069 72.9946M176.848 94.7787C176.35 95.5444 176.235 96.9801 175.987 97.9563C174.321 104.197 172.541 116.907 172.024 123.033C171.488 129.388 169.593 150.024 179.145 147.344C182.935 146.291 184.371 140.854 184.601 136.433C184.888 130.747 184.237 126.172 183.471 121.233C182.706 116.314 181.729 112.083 180.676 107.47L177.652 96.2335C177.422 95.5061 177.384 95.1424 176.867 94.7787H176.848ZM103.896 95.2381C104.432 95.1041 111.764 94.4533 112.778 94.3767C124.723 93.3813 134.026 87.83 135.577 87.6003C134.811 91.3522 132.131 96.5781 134.62 101.938C136.611 106.226 141.262 107.106 146.756 106.207C151.637 105.403 155.408 103.737 159.505 101.957L171.105 96.5781C170.876 99.2963 168.655 108.236 168.062 112.734C166.76 122.516 164.98 138.194 169.114 147.095C171.373 151.957 176.159 154.139 181.882 151.689C191.109 147.746 189.922 132.796 188.64 121.98C188.104 117.424 184.888 103.699 183.337 98.5689C182.686 96.4249 181.327 93.0559 181.27 90.7779C187.395 86.7963 190.171 85.284 197.713 83.3698C216.377 78.6416 234.122 80.977 252.709 82.8912C255.37 83.1592 261.19 84.2121 263.544 84.0398L281.059 85.2075C286.515 85.3032 287.051 85.5903 295.091 84.9778C299.302 84.4801 303.59 83.6378 306.595 82.585C308.49 81.915 317.889 78.1822 318.789 75.8468C319.268 74.6217 318.655 74.4111 318.196 73.6837C316.052 73.5114 314.903 75.0428 311.706 76.8231C308.72 78.4885 303.456 80.1156 298.421 81.111C294.918 81.8001 291.53 82.183 289.099 82.049C283.912 82.317 280.294 82.1447 280.294 82.1447C267.162 81.9915 244.268 77.7993 229.145 77.4739C214.214 77.1676 204.26 77.3399 190.611 81.9533C187.338 83.0635 181.614 86.5666 180.83 86.6623C180.906 82.9295 183.471 80.173 185.462 78.1056C191.683 71.5972 198.154 65.5865 204.796 58.2932C214.75 47.4012 234.103 26.8614 235.52 10.4946C236.438 -0.0145863 228.226 -1.7374 221.335 1.4211C214.712 4.46474 211.132 8.12094 206.557 12.8874C202.173 17.4433 199.168 22.9372 195.876 28.2396C194.325 30.7473 192.679 34.3078 191.492 36.9686C184.543 52.5888 178.054 70.9847 173.498 87.7726C172.771 90.4716 172.254 90.2036 168.234 92.2902C165.324 93.8216 162.721 95.4295 159.716 96.6546C156.346 98.0329 143.808 104.446 139.807 100.521C136.821 97.6117 140.439 88.3468 142.028 85.1883C142.64 83.9824 143.904 81.5513 142.373 80.3836C140.573 79.0053 138.965 80.9004 137.912 81.7427C136.84 82.6041 135.271 83.5421 134.007 84.3078C131.614 85.7434 127.939 87.5045 125.087 88.2702C123.039 88.8254 119.976 89.5911 116.683 90.2802C114.214 90.9885 111.151 91.4287 108.108 91.6967C107.342 91.7733 106.614 91.8307 105.925 91.869C100.431 92.2519 95.6076 92.1562 95.6076 92.1562L95.397 91.9456C89.5777 92.1753 74.9912 90.7779 69.6887 90.1079C61.3426 89.0551 52.9774 88.098 44.4207 87.5046C31.5953 86.624 19.1145 87.0451 7.66729 91.9073C5.94447 92.6347 -0.487383 95.6401 0.0294619 97.8606C0.680304 100.655 3.89623 97.8989 4.41308 97.5352C5.82962 96.5781 7.2653 95.8889 8.83498 95.0467C17.0279 90.6439 36.3044 89.6868 45.4927 90.8928C49.5509 91.4287 54.2982 91.4288 58.2416 92.137C60.1749 92.4816 62.3189 92.5964 64.4054 92.8836L70.531 93.6301C74.2255 94.3193 79.1259 94.549 83.165 94.7978C84.2944 94.8552 90.3243 95.0658 93.789 95.2572C93.9996 95.2572 98.4215 95.4869 103.858 95.219L103.896 95.2381Z" fill="#A24F34"/>
</svg>
