<svg width="18" height="18" viewBox="0 0 18 18" fill="none" xmlns="http://www.w3.org/2000/svg">
<path d="M9.00327 4.37842C8.39673 4.37832 7.79611 4.49771 7.23573 4.72978C6.67534 4.96185 6.16616 5.30204 5.73727 5.73093C5.30839 6.15981 4.96819 6.66899 4.73613 7.22938C4.50406 7.78976 4.38467 8.39038 4.38477 8.99692C4.38467 9.60346 4.50406 10.2041 4.73613 10.7645C4.96819 11.3248 5.30839 11.834 5.73727 12.2629C6.16616 12.6918 6.67534 13.032 7.23573 13.2641C7.79611 13.4961 8.39673 13.6155 9.00327 13.6154C9.6098 13.6155 10.2104 13.4961 10.7708 13.2641C11.3312 13.032 11.8404 12.6918 12.2693 12.2629C12.6981 11.834 13.0383 11.3248 13.2704 10.7645C13.5025 10.2041 13.6219 9.60346 13.6218 8.99692C13.6219 8.39038 13.5025 7.78976 13.2704 7.22938C13.0383 6.66899 12.6981 6.15981 12.2693 5.73093C11.8404 5.30204 11.3312 4.96185 10.7708 4.72978C10.2104 4.49771 9.6098 4.37832 9.00327 4.37842ZM9.00327 11.9947C8.41058 11.9945 7.83124 11.8186 7.3385 11.4893C6.84577 11.1599 6.46175 10.6918 6.23501 10.1442C6.00826 9.59662 5.94897 8.99409 6.06464 8.4128C6.1803 7.83151 6.46572 7.29756 6.88482 6.87847C7.30391 6.45938 7.83786 6.17396 8.41915 6.05829C9.00044 5.94263 9.60297 6.00191 10.1506 6.22866C10.6982 6.4554 11.1662 6.83942 11.4956 7.33216C11.825 7.8249 12.0009 8.40423 12.001 8.99692C12.0012 9.39064 11.9238 9.78055 11.7732 10.1443C11.6226 10.5081 11.4018 10.8387 11.1234 11.1171C10.845 11.3955 10.5145 11.6163 10.1507 11.7669C9.7869 11.9175 9.39699 11.9949 9.00327 11.9947Z" fill="white"/>
<path d="M12.7112 0.0572724C11.0552 -0.0199776 6.95342 -0.0162276 5.29592 0.0572724C3.83942 0.125522 2.55467 0.477272 1.51892 1.51302C-0.21208 3.24402 0.00917045 5.57652 0.00917045 8.99727C0.00917045 12.4983 -0.18583 14.7768 1.51892 16.4815C3.25667 18.2185 5.62292 17.9913 9.00317 17.9913C12.4712 17.9913 13.6682 17.9935 14.8944 17.5188C16.5617 16.8715 17.8202 15.3813 17.9432 12.7045C18.0212 11.0478 18.0167 6.94677 17.9432 5.28927C17.7947 2.12952 16.0989 0.213272 12.7112 0.0572724ZM15.3324 15.3363C14.1977 16.471 12.6234 16.3698 8.98142 16.3698C5.23142 16.3698 3.72767 16.4253 2.63042 15.325C1.36667 14.0673 1.59542 12.0475 1.59542 8.98527C1.59542 4.84152 1.17017 1.85727 5.32892 1.64427C6.28442 1.61052 6.56567 1.59927 8.97092 1.59927L9.00467 1.62177C13.0014 1.62177 16.1372 1.20327 16.3254 5.36127C16.3682 6.31002 16.3779 6.59502 16.3779 8.99652C16.3772 12.703 16.4477 14.2158 15.3324 15.3363Z" fill="white"/>
<path d="M13.8048 5.27544C14.4009 5.27544 14.8841 4.79225 14.8841 4.19619C14.8841 3.60014 14.4009 3.11694 13.8048 3.11694C13.2088 3.11694 12.7256 3.60014 12.7256 4.19619C12.7256 4.79225 13.2088 5.27544 13.8048 5.27544Z" fill="white"/>
</svg>
