<svg width="52" height="52" viewBox="0 0 52 52" fill="none" xmlns="http://www.w3.org/2000/svg">
<g clip-path="url(#clip0_496_681)">
<path d="M26.0085 0.0327148C15.1643 0.0327148 11.9928 0.0439018 11.3763 0.0950422C9.15093 0.280027 7.76615 0.630418 6.25751 1.38154C5.09486 1.95887 4.17793 2.62809 3.27298 3.5662C1.6249 5.277 0.626068 7.38175 0.26449 9.88364C0.0886946 11.0982 0.0375542 11.3459 0.0271663 17.5499C0.023171 19.6179 0.0271663 22.3395 0.0271663 25.9901C0.0271663 36.8254 0.0391524 39.9938 0.0910918 40.609C0.270882 42.7745 0.610487 44.1369 1.32965 45.6272C2.70405 48.4799 5.32899 50.6214 8.42138 51.4204C9.49214 51.6961 10.6748 51.8479 12.193 51.9199C12.8362 51.9478 19.3926 51.9678 25.953 51.9678C32.5133 51.9678 39.0737 51.9598 39.7009 51.9278C41.4589 51.8451 42.4797 51.7081 43.6084 51.4164C45.1417 51.0232 46.5707 50.3 47.7956 49.2973C49.0205 48.2947 50.0118 47.0367 50.7001 45.6112C51.4053 44.1569 51.7629 42.7425 51.9247 40.6901C51.9599 40.2427 51.9746 33.1082 51.9746 25.9833C51.9746 18.8572 51.9586 11.7359 51.9235 11.2884C51.7597 9.20283 51.4021 7.80046 50.6741 6.31819C50.0768 5.10481 49.4136 4.19866 48.4507 3.27214C46.7327 1.63085 44.6312 0.632017 42.1265 0.270837C40.9131 0.0954418 40.6714 0.0435023 34.4626 0.0327148H26.0085Z" fill="url(#paint0_radial_496_681)"/>
<path d="M26.0085 0.0327148C15.1643 0.0327148 11.9928 0.0439018 11.3763 0.0950422C9.15093 0.280027 7.76615 0.630418 6.25751 1.38154C5.09486 1.95887 4.17793 2.62809 3.27298 3.5662C1.6249 5.277 0.626068 7.38175 0.26449 9.88364C0.0886946 11.0982 0.0375542 11.3459 0.0271663 17.5499C0.023171 19.6179 0.0271663 22.3395 0.0271663 25.9901C0.0271663 36.8254 0.0391524 39.9938 0.0910918 40.609C0.270882 42.7745 0.610487 44.1369 1.32965 45.6272C2.70405 48.4799 5.32899 50.6214 8.42138 51.4204C9.49214 51.6961 10.6748 51.8479 12.193 51.9199C12.8362 51.9478 19.3926 51.9678 25.953 51.9678C32.5133 51.9678 39.0737 51.9598 39.7009 51.9278C41.4589 51.8451 42.4797 51.7081 43.6084 51.4164C45.1417 51.0232 46.5707 50.3 47.7956 49.2973C49.0205 48.2947 50.0118 47.0367 50.7001 45.6112C51.4053 44.1569 51.7629 42.7425 51.9247 40.6901C51.9599 40.2427 51.9746 33.1082 51.9746 25.9833C51.9746 18.8572 51.9586 11.7359 51.9235 11.2884C51.7597 9.20283 51.4021 7.80046 50.6741 6.31819C50.0768 5.10481 49.4136 4.19866 48.4507 3.27214C46.7327 1.63085 44.6312 0.632017 42.1265 0.270837C40.9131 0.0954418 40.6714 0.0435023 34.4626 0.0327148H26.0085Z" fill="url(#paint1_radial_496_681)"/>
<path d="M25.9962 6.82471C20.7879 6.82471 20.1343 6.84748 18.0886 6.94057C16.047 7.03406 14.6535 7.35729 13.4341 7.83153C12.1727 8.32136 11.1028 8.9766 10.0368 10.043C8.97007 11.1089 8.31484 12.1789 7.82341 13.4398C7.34796 14.6596 7.02434 16.0536 6.93245 18.0944C6.84135 20.14 6.81738 20.794 6.81738 26.0024C6.81738 31.2107 6.84056 31.8623 6.93325 33.908C7.02714 35.9496 7.35036 37.3431 7.82421 38.5625C8.31444 39.8239 8.96967 40.8938 10.036 41.9598C11.1016 43.0265 12.1715 43.6834 13.4321 44.1732C14.6523 44.6474 16.0462 44.9707 18.0875 45.0642C20.1331 45.1572 20.7863 45.18 25.9942 45.18C31.203 45.18 31.8546 45.1572 33.9002 45.0642C35.9418 44.9707 37.337 44.6474 38.5572 44.1732C39.8181 43.6834 40.8865 43.0265 41.952 41.9598C43.0188 40.8938 43.674 39.8239 44.1655 38.5629C44.6369 37.3431 44.9605 35.9492 45.0564 33.9084C45.1483 31.8627 45.1723 31.2107 45.1723 26.0024C45.1723 20.794 45.1483 20.1404 45.0564 18.0948C44.9605 16.0532 44.6369 14.6596 44.1655 13.4402C43.674 12.1789 43.0188 11.1089 41.952 10.043C40.8853 8.9762 39.8185 8.32096 38.556 7.83153C37.3334 7.35729 35.9391 7.03406 33.8974 6.94057C31.8518 6.84748 31.2006 6.82471 25.9906 6.82471H25.9962ZM24.2758 10.2807C24.7864 10.2799 25.3562 10.2807 25.9962 10.2807C31.1167 10.2807 31.7236 10.2991 33.7456 10.391C35.6154 10.4765 36.6302 10.7889 37.3063 11.0514C38.2012 11.399 38.8393 11.8145 39.5101 12.4857C40.1813 13.1569 40.5968 13.7962 40.9452 14.6911C41.2077 15.3664 41.5205 16.3812 41.6056 18.251C41.6975 20.2726 41.7175 20.8799 41.7175 25.998C41.7175 31.116 41.6975 31.7233 41.6056 33.7449C41.5201 35.6148 41.2077 36.6296 40.9452 37.3048C40.5976 38.1997 40.1813 38.837 39.5101 39.5078C38.8389 40.179 38.2016 40.5946 37.3063 40.9422C36.631 41.2058 35.6154 41.5175 33.7456 41.603C31.724 41.6949 31.1167 41.7149 25.9962 41.7149C20.8754 41.7149 20.2685 41.6949 18.2469 41.603C16.377 41.5167 15.3622 41.2042 14.6858 40.9418C13.7909 40.5942 13.1516 40.1786 12.4804 39.5074C11.8092 38.8362 11.3937 38.1986 11.0453 37.3032C10.7828 36.628 10.4699 35.6132 10.3848 33.7433C10.2929 31.7217 10.2746 31.1144 10.2746 25.9932C10.2746 20.8719 10.2929 20.2678 10.3848 18.2462C10.4703 16.3764 10.7828 15.3616 11.0453 14.6855C11.3929 13.7906 11.8092 13.1513 12.4804 12.4801C13.1516 11.8089 13.7909 11.3934 14.6858 11.045C15.3618 10.7813 16.377 10.4697 18.2469 10.3838C20.016 10.3039 20.7016 10.2799 24.2758 10.2759V10.2807ZM36.2331 13.465C35.7779 13.465 35.3329 13.6 34.9545 13.8529C34.576 14.1058 34.281 14.4652 34.1069 14.8858C33.9327 15.3064 33.8872 15.7691 33.9761 16.2155C34.0649 16.662 34.2842 17.072 34.6061 17.3938C34.928 17.7157 35.3382 17.9348 35.7846 18.0235C36.2311 18.1122 36.6938 18.0665 37.1143 17.8922C37.5348 17.7179 37.8942 17.4228 38.147 17.0443C38.3997 16.6657 38.5346 16.2207 38.5344 15.7655C38.5344 14.495 37.5036 13.4642 36.2331 13.4642V13.465ZM25.9962 16.1538C20.5574 16.1538 16.1477 20.5635 16.1477 26.0024C16.1477 31.4412 20.5574 35.8489 25.9962 35.8489C31.4351 35.8489 35.8436 31.4412 35.8436 26.0024C35.8436 20.5635 31.4351 16.1538 25.9962 16.1538ZM25.9962 19.6098C29.5265 19.6098 32.3888 22.4717 32.3888 26.0024C32.3888 29.5326 29.5265 32.3949 25.9962 32.3949C22.4655 32.3949 19.6037 29.5326 19.6037 26.0024C19.6037 22.4717 22.4655 19.6098 25.9962 19.6098Z" fill="#E3C4BC"/>
</g>
<defs>
<radialGradient id="paint0_radial_496_681" cx="0" cy="0" r="1" gradientUnits="userSpaceOnUse" gradientTransform="translate(13.8245 55.9679) rotate(-90) scale(51.4715 47.8856)">
<stop stop-color="#A24F34"/>
<stop offset="0.1" stop-color="#A24F34"/>
<stop offset="0.5" stop-color="#A24F34"/>
<stop offset="1" stop-color="#A24F34"/>
</radialGradient>
<radialGradient id="paint1_radial_496_681" cx="0" cy="0" r="1" gradientUnits="userSpaceOnUse" gradientTransform="translate(-8.67638 3.77403) rotate(78.6776) scale(23.0082 94.8647)">
<stop stop-color="#E99270"/>
<stop offset="0.128" stop-color="#E99270"/>
<stop offset="1" stop-color="#E99270" stop-opacity="0"/>
</radialGradient>
<clipPath id="clip0_496_681">
<rect width="52" height="52" fill="#E3C4BC"/>
</clipPath>
</defs>
</svg>
